<svg width="173" height="30" viewBox="0 0 173 30" fill="none" xmlns="http://www.w3.org/2000/svg">
<path d="M3.39039 3.44267C2.55689 3.58286 1.803 3.97539 1.19426 4.58287C0.744732 5.03615 0.552747 5.31653 0.30457 5.90065C-0.0185282 6.64366 0.000202183 6.16701 0.000202183 14.6251C0.000202183 22.901 -0.00916297 22.5739 0.257744 23.2748C0.440365 23.7655 0.72132 24.2047 1.11934 24.6206C1.68593 25.2141 2.29467 25.5692 3.10007 25.7842L3.48872 25.887L10.9574 25.9057C16.2722 25.915 18.562 25.9057 18.8897 25.8683C19.8637 25.7562 20.6504 25.387 21.3247 24.7187C21.8257 24.2234 22.1207 23.7421 22.3642 23.0178L22.5 22.6206V14.6765V6.73244L22.3923 6.36328C21.999 5.00344 20.9782 3.98006 19.5968 3.54547L19.1754 3.41463L11.4023 3.40996C7.12709 3.40528 3.5215 3.4193 3.39039 3.44267ZM8.37734 11.8681C9.95537 13.3821 11.2337 14.6391 11.229 14.6578C11.2197 14.6765 9.92259 15.9335 8.34456 17.4523L5.46946 20.214L4.72493 19.499C4.31754 19.1112 3.9804 18.7654 3.98508 18.742C3.98508 18.714 4.93564 17.7887 6.09224 16.6859C7.24415 15.5784 8.19004 14.6625 8.19472 14.6485C8.19472 14.6298 7.24884 13.7045 6.08756 12.5924C4.93096 11.4802 3.9804 10.5596 3.9804 10.5456C3.9804 10.4848 5.41327 9.0923 5.46009 9.10165C5.49287 9.11099 6.80399 10.354 8.37734 11.8681ZM18.59 19.3495V20.214H15.8742H13.1583V19.3495V18.485H15.8742H18.59V19.3495Z" fill="#FFFFFF"/>
<path d="M35.587 23H29.6753V5.55443H35.7063C37.4383 5.55443 38.9262 5.90368 40.1699 6.60219C41.4193 7.29501 42.379 8.29166 43.0491 9.59213C43.7192 10.8926 44.0543 12.4486 44.0543 14.2602C44.0543 16.0774 43.7164 17.6391 43.0406 18.9453C42.3705 20.2514 41.4022 21.2537 40.1358 21.9522C38.8751 22.6507 37.3588 23 35.587 23ZM32.8356 20.2656H35.4337C36.649 20.2656 37.6627 20.0441 38.4747 19.6012C39.2868 19.1525 39.8973 18.4853 40.3062 17.5994C40.7151 16.7078 40.9195 15.5947 40.9195 14.2602C40.9195 12.9256 40.7151 11.8183 40.3062 10.938C39.8973 10.0521 39.2925 9.39053 38.4918 8.95325C37.6967 8.5103 36.7086 8.28882 35.5274 8.28882H32.8356V20.2656ZM46.6808 23V9.91582H49.7644V23H46.6808ZM48.2311 8.05883C47.7428 8.05883 47.3225 7.89698 46.9704 7.57328C46.6183 7.2439 46.4423 6.84922 46.4423 6.38923C46.4423 5.92356 46.6183 5.52888 46.9704 5.20518C47.3225 4.8758 47.7428 4.71112 48.2311 4.71112C48.7252 4.71112 49.1454 4.8758 49.4919 5.20518C49.844 5.52888 50.02 5.92356 50.02 6.38923C50.02 6.84922 49.844 7.2439 49.4919 7.57328C49.1454 7.89698 48.7252 8.05883 48.2311 8.05883ZM58.3858 28.1792C57.2784 28.1792 56.3272 28.0287 55.5321 27.7277C54.7371 27.4324 54.0982 27.0349 53.6155 26.5351C53.1328 26.0354 52.7977 25.4817 52.6103 24.874L55.3873 24.2011C55.5123 24.4566 55.694 24.7093 55.9325 24.9592C56.171 25.2148 56.4919 25.4249 56.8951 25.5896C57.3039 25.7599 57.8179 25.8451 58.4369 25.8451C59.3114 25.8451 60.0355 25.6322 60.6091 25.2063C61.1826 24.786 61.4694 24.0932 61.4694 23.1278V20.6489H61.3161C61.1571 20.967 60.9242 21.2935 60.6176 21.6285C60.3166 21.9636 59.9162 22.2447 59.4165 22.4719C58.9224 22.699 58.3006 22.8126 57.551 22.8126C56.5458 22.8126 55.6344 22.5769 54.8166 22.1056C54.0045 21.6285 53.3571 20.9187 52.8744 19.976C52.3974 19.0276 52.1589 17.8407 52.1589 16.4153C52.1589 14.9786 52.3974 13.7661 52.8744 12.778C53.3571 11.7842 54.0073 11.0317 54.8251 10.5206C55.6429 10.0038 56.5543 9.74546 57.5595 9.74546C58.3261 9.74546 58.9565 9.87607 59.4506 10.1373C59.9503 10.3929 60.3478 10.7024 60.6431 11.0658C60.9384 11.4236 61.1628 11.7615 61.3161 12.0795H61.4865V9.91582H64.5275V23.213C64.5275 24.3317 64.2606 25.2574 63.7268 25.9899C63.193 26.7225 62.4632 27.2705 61.5376 27.634C60.6119 27.9974 59.5613 28.1792 58.3858 28.1792ZM58.4113 20.3934C59.0644 20.3934 59.6209 20.2344 60.0809 19.9164C60.5409 19.5983 60.8902 19.1412 61.1287 18.5449C61.3672 17.9486 61.4865 17.2331 61.4865 16.3983C61.4865 15.5748 61.3672 14.8536 61.1287 14.2346C60.8958 13.6156 60.5494 13.1358 60.0894 12.795C59.6351 12.4486 59.0758 12.2754 58.4113 12.2754C57.7242 12.2754 57.1506 12.4543 56.6906 12.8121C56.2306 13.1698 55.8842 13.6611 55.6514 14.2857C55.4186 14.9047 55.3021 15.6089 55.3021 16.3983C55.3021 17.199 55.4186 17.9004 55.6514 18.5023C55.8899 19.0986 56.2392 19.5643 56.6991 19.8993C57.1648 20.2287 57.7355 20.3934 58.4113 20.3934ZM67.4479 23V9.91582H70.5316V23H67.4479ZM68.9983 8.05883C68.5099 8.05883 68.0896 7.89698 67.7376 7.57328C67.3855 7.2439 67.2094 6.84922 67.2094 6.38923C67.2094 5.92356 67.3855 5.52888 67.7376 5.20518C68.0896 4.8758 68.5099 4.71112 68.9983 4.71112C69.4923 4.71112 69.9126 4.8758 70.259 5.20518C70.6111 5.52888 70.7871 5.92356 70.7871 6.38923C70.7871 6.84922 70.6111 7.2439 70.259 7.57328C69.9126 7.89698 69.4923 8.05883 68.9983 8.05883ZM79.9962 9.91582V12.301H72.4745V9.91582H79.9962ZM74.3315 6.78107H77.4152V19.0645C77.4152 19.4791 77.4776 19.7971 77.6026 20.0186C77.7332 20.2344 77.9035 20.382 78.1137 20.4615C78.3238 20.541 78.5566 20.5808 78.8122 20.5808C79.0052 20.5808 79.1813 20.5666 79.3403 20.5382C79.505 20.5098 79.6299 20.4842 79.7151 20.4615L80.2347 22.8722C80.07 22.929 79.8344 22.9915 79.5277 23.0596C79.2267 23.1278 78.8576 23.1675 78.4203 23.1789C77.648 23.2016 76.9523 23.0852 76.3333 22.8296C75.7143 22.5684 75.2231 22.1652 74.8597 21.62C74.5019 21.0749 74.3258 20.3934 74.3315 19.5756V6.78107ZM86.1004 23.2641C85.2713 23.2641 84.5245 23.1164 83.8601 22.8211C83.2013 22.5201 82.6788 22.0772 82.2927 21.4923C81.9122 20.9073 81.7219 20.1861 81.7219 19.3286C81.7219 18.5903 81.8582 17.9799 82.1308 17.4971C82.4034 17.0144 82.7754 16.6283 83.2467 16.3387C83.7181 16.049 84.2491 15.8304 84.8397 15.6827C85.4359 15.5294 86.0521 15.4187 86.6881 15.3505C87.4548 15.271 88.0766 15.2 88.5537 15.1376C89.0307 15.0694 89.3771 14.9672 89.5929 14.8309C89.8144 14.6889 89.9251 14.4703 89.9251 14.175V14.1239C89.9251 13.4822 89.7349 12.9853 89.3544 12.6332C88.9739 12.2811 88.4259 12.105 87.7103 12.105C86.9551 12.105 86.3559 12.2697 85.913 12.5991C85.4757 12.9285 85.1804 13.3175 85.0271 13.7661L82.1479 13.3572C82.375 12.5622 82.7498 11.8978 83.2723 11.3639C83.7947 10.8244 84.4336 10.4212 85.1889 10.1543C85.9442 9.88175 86.779 9.74546 87.6933 9.74546C88.3237 9.74546 88.9512 9.81928 89.5759 9.96693C90.2005 10.1146 90.7713 10.3588 91.288 10.6995C91.8048 11.0346 92.2194 11.4917 92.5317 12.071C92.8497 12.6502 93.0088 13.3743 93.0088 14.2431V23H90.0444V21.2026H89.9422C89.7547 21.5661 89.4907 21.9068 89.1499 22.2248C88.8149 22.5372 88.3918 22.7899 87.8807 22.983C87.3753 23.1704 86.7818 23.2641 86.1004 23.2641ZM86.9011 20.9982C87.5201 20.9982 88.0568 20.8761 88.5111 20.6319C88.9654 20.382 89.3146 20.0527 89.5588 19.6438C89.8087 19.2349 89.9336 18.7891 89.9336 18.3064V16.7646C89.8371 16.8441 89.6724 16.9179 89.4396 16.986C89.2124 17.0542 88.9569 17.1138 88.6729 17.1649C88.389 17.216 88.1079 17.2615 87.8296 17.3012C87.5513 17.341 87.31 17.3751 87.1055 17.4034C86.6456 17.4659 86.2338 17.5681 85.8704 17.7101C85.5069 17.8521 85.2201 18.0508 85.01 18.3064C84.7999 18.5563 84.6949 18.88 84.6949 19.2775C84.6949 19.8454 84.9021 20.2741 85.3167 20.5638C85.7313 20.8534 86.2594 20.9982 86.9011 20.9982ZM98.9532 5.55443V23H95.8696V5.55443H98.9532ZM117.212 10.3503C117.132 9.60632 116.797 9.02708 116.207 8.61252C115.622 8.19796 114.861 7.99068 113.924 7.99068C113.265 7.99068 112.7 8.09006 112.228 8.28882C111.757 8.48758 111.396 8.75733 111.147 9.09806C110.897 9.4388 110.769 9.8278 110.763 10.2651C110.763 10.6285 110.846 10.9437 111.01 11.2106C111.181 11.4775 111.411 11.7047 111.7 11.8921C111.99 12.0738 112.311 12.2271 112.663 12.3521C113.015 12.477 113.37 12.5821 113.728 12.6672L115.363 13.0761C116.022 13.2295 116.655 13.4367 117.263 13.698C117.876 13.9592 118.424 14.2886 118.907 14.6861C119.395 15.0836 119.781 15.5635 120.065 16.1257C120.349 16.6879 120.491 17.3467 120.491 18.102C120.491 19.1242 120.23 20.0243 119.708 20.8023C119.185 21.5746 118.43 22.1794 117.442 22.6167C116.459 23.0483 115.269 23.2641 113.872 23.2641C112.515 23.2641 111.337 23.0539 110.337 22.6337C109.344 22.2135 108.566 21.6002 108.003 20.7937C107.447 19.9873 107.146 19.0049 107.1 17.8464H110.21C110.255 18.454 110.442 18.9595 110.772 19.3627C111.101 19.7659 111.53 20.0669 112.058 20.2656C112.592 20.4644 113.188 20.5638 113.847 20.5638C114.534 20.5638 115.136 20.4615 115.653 20.2571C116.175 20.047 116.584 19.7574 116.879 19.3882C117.175 19.0134 117.325 18.5761 117.331 18.0764C117.325 17.6221 117.192 17.2473 116.931 16.952C116.669 16.651 116.303 16.4011 115.832 16.2024C115.366 15.9979 114.821 15.8162 114.196 15.6572L112.211 15.1461C110.775 14.777 109.639 14.2176 108.804 13.468C107.975 12.7127 107.56 11.7104 107.56 10.461C107.56 9.43312 107.839 8.53301 108.395 7.76068C108.957 6.98835 109.721 6.38923 110.687 5.96331C111.652 5.53172 112.745 5.31592 113.966 5.31592C115.204 5.31592 116.289 5.53172 117.22 5.96331C118.157 6.38923 118.893 6.98267 119.426 7.74365C119.96 8.49894 120.236 9.36781 120.253 10.3503H117.212ZM129.466 9.91582V12.301H121.944V9.91582H129.466ZM123.801 6.78107H126.885V19.0645C126.885 19.4791 126.947 19.7971 127.072 20.0186C127.203 20.2344 127.373 20.382 127.584 20.4615C127.794 20.541 128.026 20.5808 128.282 20.5808C128.475 20.5808 128.651 20.5666 128.81 20.5382C128.975 20.5098 129.1 20.4842 129.185 20.4615L129.705 22.8722C129.54 22.929 129.304 22.9915 128.998 23.0596C128.697 23.1278 128.327 23.1675 127.89 23.1789C127.118 23.2016 126.422 23.0852 125.803 22.8296C125.184 22.5684 124.693 22.1652 124.33 21.62C123.972 21.0749 123.796 20.3934 123.801 19.5756V6.78107ZM137.372 23.2556C136.094 23.2556 134.987 22.9744 134.05 22.4122C133.113 21.85 132.386 21.0635 131.869 20.0527C131.358 19.0418 131.102 17.8606 131.102 16.509C131.102 15.1574 131.358 13.9734 131.869 12.9569C132.386 11.9403 133.113 11.151 134.05 10.5888C134.987 10.0266 136.094 9.74546 137.372 9.74546C138.65 9.74546 139.757 10.0266 140.694 10.5888C141.631 11.151 142.355 11.9403 142.866 12.9569C143.383 13.9734 143.641 15.1574 143.641 16.509C143.641 17.8606 143.383 19.0418 142.866 20.0527C142.355 21.0635 141.631 21.85 140.694 22.4122C139.757 22.9744 138.65 23.2556 137.372 23.2556ZM137.389 20.7852C138.082 20.7852 138.661 20.595 139.127 20.2145C139.592 19.8283 139.939 19.3116 140.166 18.6642C140.399 18.0168 140.515 17.2955 140.515 16.5005C140.515 15.6998 140.399 14.9757 140.166 14.3283C139.939 13.6753 139.592 13.1556 139.127 12.7695C138.661 12.3833 138.082 12.1902 137.389 12.1902C136.679 12.1902 136.088 12.3833 135.617 12.7695C135.151 13.1556 134.802 13.6753 134.569 14.3283C134.342 14.9757 134.229 15.6998 134.229 16.5005C134.229 17.2955 134.342 18.0168 134.569 18.6642C134.802 19.3116 135.151 19.8283 135.617 20.2145C136.088 20.595 136.679 20.7852 137.389 20.7852ZM146.019 23V9.91582H149.009V12.0965H149.145C149.383 11.3412 149.792 10.7591 150.372 10.3503C150.957 9.9357 151.624 9.72842 152.373 9.72842C152.544 9.72842 152.734 9.73694 152.944 9.75397C153.16 9.76533 153.339 9.78521 153.481 9.8136V12.6502C153.35 12.6048 153.143 12.565 152.859 12.531C152.581 12.4912 152.311 12.4713 152.05 12.4713C151.488 12.4713 150.982 12.5934 150.533 12.8376C150.091 13.0761 149.741 13.4083 149.486 13.8343C149.23 14.2602 149.102 14.7514 149.102 15.3079V23H146.019ZM160.543 23.2556C159.231 23.2556 158.099 22.983 157.144 22.4378C156.196 21.8869 155.466 21.1089 154.955 20.1038C154.444 19.0929 154.189 17.9032 154.189 16.5346C154.189 15.1887 154.444 14.0075 154.955 12.9909C155.472 11.9687 156.193 11.1737 157.119 10.6058C158.045 10.0322 159.132 9.74546 160.381 9.74546C161.188 9.74546 161.949 9.87607 162.664 10.1373C163.386 10.3929 164.022 10.7904 164.572 11.3299C165.129 11.8694 165.566 12.5565 165.884 13.3913C166.202 14.2204 166.361 15.2086 166.361 16.3557V17.3012H155.637V15.2228H163.405C163.4 14.6321 163.272 14.1068 163.022 13.6469C162.772 13.1812 162.423 12.8149 161.974 12.548C161.531 12.2811 161.015 12.1476 160.424 12.1476C159.794 12.1476 159.24 12.301 158.763 12.6076C158.286 12.9086 157.914 13.3061 157.647 13.8002C157.386 14.2886 157.252 14.8252 157.247 15.4102V17.2246C157.247 17.9855 157.386 18.6386 157.664 19.1838C157.942 19.7233 158.331 20.1378 158.831 20.4275C159.331 20.7114 159.916 20.8534 160.586 20.8534C161.035 20.8534 161.441 20.7909 161.804 20.666C162.167 20.5354 162.483 20.3451 162.75 20.0952C163.016 19.8454 163.218 19.5359 163.354 19.1667L166.234 19.4904C166.052 20.2514 165.705 20.9158 165.194 21.4837C164.689 22.0459 164.041 22.4832 163.252 22.7956C162.463 23.1022 161.56 23.2556 160.543 23.2556Z" fill="#FFFFFF"/>
</svg>
